<?xml version="1.0" encoding="utf-8"?>
<!-- Generator: Adobe Illustrator 24.0.1, SVG Export Plug-In . SVG Version: 6.00 Build 0)  -->
<svg version="1.1" id="Layer_1" xmlns="http://www.w3.org/2000/svg" xmlns:xlink="http://www.w3.org/1999/xlink" x="0px" y="0px"
	 viewBox="0 0 410.48 141.15" style="enable-background:new 0 0 410.48 141.15;" xml:space="preserve">
<style type="text/css">
	.st0{fill:#0067FF;}
</style>
<path class="st0" d="M402.11,78.44c-2.05-4.28-4.03-8.34-2.79-12.76c1.54-5.5,6.48-9.4,11.15-11.73l-11.15-18.19
	c-2.25,0.68-5.45,2.32-9.61,4.91c-6.18,3.85-11.1,10.2-14.74,18.26c-2.62,5.81-4.31,15.78-0.31,26.12c0-0.01,0.01-0.01,0.01-0.01
	c2.88,7.49,6.69,12.78,2.42,20.53c-4.14,7.52-16.4,8.94-23.69,1.61c-9.86-9.93-7.17-11.41-11.32-7.85
	c-0.01-0.06-0.02-0.11-0.02-0.17c-7.38,6.57-16.51,12.6-23.95,15.45c-6.36,2.43-13.94,5.03-17.01-1.97
	c-0.54-1.22-0.85-2.41-0.95-3.58c7.89-2.43,15.5-6.08,22.85-10.95c7.35-4.87,12.53-11.25,15.55-19.13c0.88-2.34,1.58-5.52,2.12-9.56
	c0.81-6.11-1.82-12.72-7.52-15.41c-1.66-0.78-2.78-1.22-3.36-1.31c-4.13-0.83-10.02,0.07-12.79,1.94c-2.76,1.87-5.41,3.97-7.22,6.76
	c-1.81,2.8-5.79,10.45-6.45,11.76c0,0.01,0.26,0.65,0.26,0.66c8.92-4.88,16.23,9.88-4.02,22.11c-5.65,3.41-10.71,6.04-15.19,7.89
	l44.83-95.65h-28.04l-44.44,93.06c-0.41,0.4-0.82,0.8-1.25,1.2c-2.84,2.7-17.75,15.64-21.47,13.36c-2.24-1.46-0.58-8.96,4.97-22.49
	c4.18-10.81,11.1-24.73,20.74-41.76h-29.79c-1.07,1.75-3.97,6.96-8.69,15.62c-4.72,8.67-9.32,18.21-13.8,28.62
	c-0.13,0.31-0.25,0.61-0.38,0.93c-2.12,2.19-4.39,4.43-6.81,6.74c-5.32,5.07-12.57,10.68-18.62,12.56c-3.54,1.1-4.66-0.92-3.65-4.16
	l1.09-3.07c8.47-16.65,16.94-33.29,25.41-49.94c8.37-16.65,16.79-33.29,25.26-49.94h-29.21l-47.68,90.59
	c-0.98,0.96-1.98,1.94-3.04,2.95c-2.84,2.7-17.75,15.64-21.47,13.36c-2.24-1.46-0.58-8.96,4.96-22.49
	c4.19-10.81,11.1-24.73,20.74-41.76h-29.79c-1.07,1.75-3.97,6.96-8.69,15.62c-4.63,8.49-9.14,17.84-13.53,28.01
	c1.22-8.21,0.66-16.89-1.71-26.05c-1.42-4.12-3.02-7.78-4.82-11c-1.42-2.96-2.58-5.76-3.47-8.39c-2.2-6.45,0.94-13.66,5.89-17.95
	c2.89-2.51,12.23-4.47,15.06-5.89l12.77-25.05c-6.93-1.49-31.78-2.04-46.55,7.59c-5.4,3.52-10.52,8.72-15.15,15.92
	c-1.03,1.42-2.44,4.12-4.24,8.11c-3.45,7.64-5.67,20.77-0.41,34.37c0.01-0.01,0.01-0.01,0.02-0.02c3.78,9.85,8.8,16.8,3.18,27.02
	c-5.45,9.91-21.57,11.78-31.17,2.12c-5.45-5.52-8.11-9.43-11.3-13.08C17.53,85.14,1.91,98.32,0,100c0.39,3.22,2.19,8.3,5.4,15.25
	c3.22,6.95,8.88,13.19,16.98,18.72c12.99,7.2,26.66,8.52,41.01,3.96c14.26-4.54,24.99-12.49,32.2-23.84
	c-1.6,7.11-2.9,18.18,3.56,23.76c1.75,1.35,5.45,2.56,7.89,2.78c10.22,0.58,19.93-2.5,29.13-9.27c3.03-2.23,5.89-4.52,8.61-6.86
	c0.17,5.21,2.83,10.73,7.35,13.58c6.37,4.01,13.71,3.89,20.95,0.95c10.73-4.36,19.04-11.03,27.03-18.02
	c-0.5,5.26-0.17,12.65,4.7,16.85c1.75,1.35,5.45,2.56,7.88,2.78c10.22,0.58,19.93-2.5,29.13-9.27c0.29-0.21,0.56-0.43,0.84-0.64
	c-1.57,3.3-3.15,6.6-4.73,9.91h29.21l10.37-22.2c0.39,2.83,1.41,6.16,3.07,10c2.88,6.69,9.63,11.93,17.01,12.19
	c2.78,0.1,4.94,0,6.5-0.29c12.2-2.17,20.69-7.96,30.47-16.6c2.54,4.54,6.52,8.66,11.95,12.37c9.88,5.47,20.26,6.48,31.17,3.01
	c10.9-3.47,19.09-9.56,24.57-18.26c5.57-10.17,6.75-21.51,3.52-34.03C404.7,83.68,403.48,80.89,402.11,78.44 M245.9,40.44
	c3.8,2.34,7.79,2.97,11.97,1.9c16.6-4.25,18.51-23.96,9.49-30.96c-10.02-7.78-29.89,0.77-27.67,18.55
	C240.23,34.21,242.3,37.71,245.9,40.44 M140.83,40.44c3.8,2.34,7.79,2.97,11.97,1.9c16.6-4.25,18.51-23.96,9.49-30.96
	c-10.03-7.78-29.89,0.77-27.67,18.55C135.16,34.21,137.23,37.71,140.83,40.44"/>
</svg>
